<svg xmlns="http://www.w3.org/2000/svg" viewBox="0 0 64 64" width="64" height="64">
  <defs>
    <radialGradient id="lpbg" cx="50%" cy="50%" r="55%">
      <stop offset="0%" stop-color="#08152a"/>
      <stop offset="100%" stop-color="#05080a"/>
    </radialGradient>
    <linearGradient id="lpslot" x1="0%" y1="0%" x2="0%" y2="100%">
      <stop offset="0%" stop-color="#5b8fd9"/>
      <stop offset="100%" stop-color="#2d4a7a"/>
    </linearGradient>
    <linearGradient id="lpgold" x1="0%" y1="0%" x2="0%" y2="100%">
      <stop offset="0%" stop-color="#e8c878"/>
      <stop offset="100%" stop-color="#8b6f2f"/>
    </linearGradient>
  </defs>
  <circle cx="32" cy="32" r="30" fill="url(#lpbg)" stroke="#58a6ff" stroke-width="1.5" stroke-opacity="0.55"/>
  <!-- four mount-insignia slot squares -->
  <rect x="11" y="20" width="11" height="11" rx="2" fill="url(#lpslot)" stroke="#7eb6ff" stroke-width="0.6"/>
  <rect x="25" y="20" width="11" height="11" rx="2" fill="url(#lpslot)" stroke="#7eb6ff" stroke-width="0.6"/>
  <rect x="39" y="20" width="11" height="11" rx="2" fill="url(#lpgold)" stroke="#f0e2bc" stroke-width="0.6"/>
  <rect x="11" y="34" width="11" height="11" rx="2" fill="url(#lpslot)" stroke="#7eb6ff" stroke-width="0.6"/>
  <!-- preferred-slot star on the gold slot -->
  <path d="M 44.5 22.5 L 45.4 25.1 L 48 25.5 L 45.9 27.1 L 46.4 29.7 L 44.5 28.3 L 42.6 29.7 L 43.1 27.1 L 41 25.5 L 43.6 25.1 Z"
        fill="#f0e2bc"/>
  <!-- "shared" link arrows between two slots -->
  <path d="M 22 39 L 39 39" stroke="#3fb950" stroke-width="1.5" stroke-linecap="round" fill="none"/>
  <path d="M 38 37 L 41 39 L 38 41" stroke="#3fb950" stroke-width="1.5" stroke-linecap="round" fill="none"/>
  <path d="M 23 41 L 20 39 L 23 37" stroke="#3fb950" stroke-width="1.5" stroke-linecap="round" fill="none"/>
</svg>
